<svg height="512" viewBox="0 0 64 64" width="512" xmlns="http://www.w3.org/2000/svg"><g id="Filled_outline" data-name="Filled outline"><rect fill="#e6f1fd" height="26" rx="2" width="58" x="3" y="19"/><path d="m7 19h50a0 0 0 0 1 0 0v2a2 2 0 0 1 -2 2h-46a2 2 0 0 1 -2-2v-2a0 0 0 0 1 0 0z" fill="#50b4f8"/><path d="m7 37h50v4h-50z" fill="#50b4f8"/><path d="m7 41h50v4h-50z" fill="#2d75bb"/><path d="m6 37h2v8h-2z" fill="#394d5c"/><path d="m56 37h2v8h-2z" fill="#394d5c"/><path d="m46 32h8v2h-8z" fill="#8ec13f"/><path d="m56 32h2v2h-2z" fill="#f9bb4b"/><path d="m42 32h2v2h-2z" fill="#f9bb4b"/><g fill="#394d5c"><path d="m31 37h2v8h-2z"/><path d="m43 37h2v8h-2z"/><path d="m19 37h2v8h-2z"/></g><path d="m6 32h9v2h-9z" fill="#e1462b"/><path d="m59 18h-54a3 3 0 0 0 -3 3v22a3 3 0 0 0 3 3h54a3 3 0 0 0 3-3v-22a3 3 0 0 0 -3-3zm-51 2h48v1a1 1 0 0 1 -1 1h-46a1 1 0 0 1 -1-1zm11 24h-11v-2h11zm0-4h-11v-2h11zm12 4h-10v-2h10zm0-4h-10v-2h10zm12 4h-10v-2h10zm0-4h-10v-2h10zm13 4h-11v-2h11zm0-4h-11v-2h11zm4 3a1 1 0 0 1 -1 1h-1v-7a1 1 0 0 0 -1-1h-50a1 1 0 0 0 -1 1v7h-1a1 1 0 0 1 -1-1v-22a1 1 0 0 1 1-1h1v1a3 3 0 0 0 3 3h46a3 3 0 0 0 3-3v-1h1a1 1 0 0 1 1 1z"/><path d="m46 32h8v2h-8z"/><path d="m56 32h2v2h-2z"/><path d="m42 32h2v2h-2z"/><path d="m6 32h9v2h-9z"/></g></svg>