<svg height="511pt" viewBox="-42 1 511 511.99932" width="511pt" xmlns="http://www.w3.org/2000/svg"><path d="m401.566406 469.332031c9.425782 0 17.066406-7.640625 17.066406-17.066406v-341.332031h-409.601562v341.332031c0 9.425781 7.644531 17.066406 17.066406 17.066406zm-187.734375-51.199219c-70.691406 0-128-57.308593-128-128 0-70.691406 57.308594-128 128-128 70.691407 0 128 57.308594 128 128 0 70.691407-57.308593 128-128 128zm0 0" fill="#ffc477"/><path d="m418.632812 42.667969c0-18.851563-15.28125-34.132813-34.132812-34.132813h-341.335938c-18.851562 0-34.132812 15.28125-34.132812 34.132813v68.265625h409.601562zm-273.066406 34.132812h-102.402344v-34.132812h102.402344zm51.199219 0c-9.425781 0-17.066406-7.640625-17.066406-17.066406s7.640625-17.066406 17.066406-17.066406 17.066406 7.640625 17.066406 17.066406-7.640625 17.066406-17.066406 17.066406zm68.265625 0c-9.425781 0-17.066406-7.640625-17.066406-17.066406s7.640625-17.066406 17.066406-17.066406 17.066406 7.640625 17.066406 17.066406-7.640625 17.066406-17.066406 17.066406zm0 0" fill="#ff9478"/><path d="m34.632812 469.332031h358.398438v34.132813h-358.398438zm0 0" fill="#787680"/><path d="m43.164062 42.667969h102.402344v34.132812h-102.402344zm0 0" fill="#ffeb99"/><path d="m213.832031 59.734375c0 9.425781-7.640625 17.066406-17.066406 17.066406s-17.066406-7.640625-17.066406-17.066406 7.640625-17.066406 17.066406-17.066406 17.066406 7.640625 17.066406 17.066406zm0 0" fill="#ffb655"/><path d="m282.097656 59.734375c0 9.425781-7.640625 17.066406-17.066406 17.066406s-17.066406-7.640625-17.066406-17.066406 7.640625-17.066406 17.066406-17.066406 17.066406 7.640625 17.066406 17.066406zm0 0" fill="#ffb655"/><path d="m213.832031 162.132812c-70.691406 0-128 57.308594-128 128 0 70.691407 57.308594 128 128 128 70.691407 0 128-57.308593 128-128 0-70.691406-57.308593-128-128-128zm98.730469 154.964844h-.042969c-14.855469 54.539063-71.113281 86.707032-125.652343 71.847656-30.359376-8.269531-55.226563-30.046874-67.429688-59.046874h-.070312.070312c-22.15625-52.082032 2.101562-112.269532 54.1875-134.425782s112.269531 2.105469 134.425781 54.1875c9.070313 21.328125 10.648438 45.101563 4.46875 67.4375zm0 0" fill="#ff9478"/><path d="m188.234375 315.734375c-23.515625 1.207031-46.710937 5.976563-68.796875 14.136719 21.925781 52.101562 81.9375 76.558594 134.039062 54.632812 29-12.207031 50.773438-37.074218 59.042969-67.429687-17.210937 4.144531-27.96875 15.726562-56.019531 15.726562-34.132812 0-34.132812-17.066406-68.265625-17.066406zm0 0" fill="#ffeb99"/><path d="m213.832031 187.734375c-56.554687-.011719-102.410156 45.824219-102.421875 102.378906 0 13.65625 2.726563 27.171875 8.027344 39.761719 22.085938-8.164062 45.28125-12.933594 68.792969-14.140625 34.136719 0 34.136719 17.066406 68.269531 17.066406 28.046875 0 38.808594-11.582031 56.019531-15.695312 15.066407-54.332031-16.765625-110.59375-71.097656-125.660157-8.984375-2.492187-18.265625-3.738281-27.589844-3.710937zm0 0" fill="#e6e7e8"/><g fill="#3e3d42"><path d="m384.5 0h-341.335938c-23.550781.0273438-42.636718 19.113281-42.664062 42.667969v409.597656c0 14.140625 11.460938 25.601563 25.597656 25.601563v25.597656c0 4.714844 3.820313 8.535156 8.535156 8.535156h358.398438c4.714844 0 8.535156-3.820312 8.535156-8.535156v-25.597656c14.136719 0 25.597656-11.460938 25.597656-25.601563v-409.597656c-.027343-23.554688-19.113281-42.6406252-42.664062-42.667969zm-341.335938 17.066406h341.335938c14.136719 0 25.597656 11.460938 25.597656 25.601563v59.730469h-392.53125v-59.730469c0-14.140625 11.460938-25.601563 25.597656-25.601563zm341.335938 477.867188h-341.335938v-17.066406h341.335938zm17.066406-34.132813h-375.46875c-4.710937 0-8.53125-3.820312-8.53125-8.535156v-332.800781h392.53125v332.800781c0 4.714844-3.820312 8.535156-8.53125 8.535156zm0 0"/><path d="m43.164062 85.332031h102.402344c4.710938 0 8.53125-3.820312 8.53125-8.53125v-34.132812c0-4.714844-3.820312-8.535157-8.53125-8.535157h-102.402344c-4.710937 0-8.53125 3.820313-8.53125 8.535157v34.132812c0 4.710938 3.820313 8.53125 8.53125 8.53125zm8.535157-34.132812h85.332031v17.066406h-85.332031zm0 0"/><path d="m196.765625 85.332031c14.136719 0 25.601563-11.460937 25.601563-25.597656 0-14.140625-11.464844-25.601563-25.601563-25.601563s-25.597656 11.460938-25.597656 25.601563c0 14.136719 11.460937 25.597656 25.597656 25.597656zm0-34.132812c4.714844 0 8.535156 3.820312 8.535156 8.535156 0 4.710937-3.820312 8.53125-8.535156 8.53125-4.710937 0-8.53125-3.820313-8.53125-8.53125 0-4.714844 3.820313-8.535156 8.53125-8.535156zm0 0"/><path d="m265.03125 85.332031c14.140625 0 25.601562-11.460937 25.601562-25.597656 0-14.140625-11.460937-25.601563-25.601562-25.601563-14.136719 0-25.597656 11.460938-25.597656 25.601563 0 14.136719 11.460937 25.597656 25.597656 25.597656zm0-34.132812c4.714844 0 8.535156 3.820312 8.535156 8.535156 0 4.710937-3.820312 8.53125-8.535156 8.53125-4.710938 0-8.53125-3.820313-8.53125-8.53125 0-4.714844 3.820312-8.535156 8.53125-8.535156zm0 0"/><path d="m316.234375 68.265625h17.066406c4.710938 0 8.53125-3.820313 8.53125-8.53125 0-4.714844-3.820312-8.535156-8.53125-8.535156h-17.066406c-4.714844 0-8.535156 3.820312-8.535156 8.535156 0 4.710937 3.820312 8.53125 8.535156 8.53125zm0 0"/><path d="m367.433594 68.265625h17.066406c4.710938 0 8.53125-3.820313 8.53125-8.53125 0-4.714844-3.820312-8.535156-8.53125-8.535156h-17.066406c-4.714844 0-8.535156 3.820312-8.535156 8.535156 0 4.710937 3.820312 8.53125 8.535156 8.53125zm0 0"/><path d="m213.832031 153.601562c-75.40625 0-136.53125 61.125-136.53125 136.53125s61.125 136.535157 136.53125 136.535157 136.535157-61.128907 136.535157-136.535157c-.089844-75.367187-61.164063-136.445312-136.535157-136.53125zm0 256c-65.980469 0-119.464843-53.488281-119.464843-119.46875 0-65.980468 53.484374-119.464843 119.464843-119.464843s119.46875 53.484375 119.46875 119.464843c-.070312 65.949219-53.519531 119.398438-119.46875 119.46875zm0 0"/><path d="m213.832031 179.199219c-61.203125-.0625-110.871093 49.507812-110.933593 110.710937-.015626 14.503906 2.820312 28.871094 8.335937 42.285156.054687.171876 0 .347657.070313.519532.066406.171875.230468.332031.316406.527344 23.765625 56.421874 88.769531 82.890624 145.1875 59.121093 31.566406-13.296875 55.214844-40.445312 64.058594-73.539062.042968-.140625.082031-.285157.109374-.429688 15.84375-58.9375-19.089843-119.5625-78.027343-135.40625-9.492188-2.550781-19.285157-3.824219-29.117188-3.789062zm0 17.066406c51.71875-.121094 93.746094 41.707031 93.867188 93.421875.015625 6.984375-.746094 13.941406-2.277344 20.753906-4.449219 1.472656-8.816406 3.183594-13.082031 5.121094-11.074219 5.746094-23.367188 8.730469-35.839844 8.703125-10.621094.285156-21.113281-2.375-30.320312-7.679687-11.589844-6.449219-24.6875-9.6875-37.949219-9.386719-21.671875.882812-43.105469 4.90625-63.621094 11.949219-16.085937-49.21875 10.773437-102.160157 59.992187-118.242188 9.4375-3.085938 19.304688-4.652344 29.230469-4.640625zm0 187.734375c-34.402343-.023438-66.035156-18.851562-82.464843-49.074219 18.351562-6.246093 37.5-9.835937 56.867187-10.660156 10.621094-.28125 21.113281 2.375 30.316406 7.679687 11.589844 6.449219 24.691407 9.691407 37.949219 9.386719 14.332031.078125 28.480469-3.191406 41.324219-9.546875-15.8125 31.9375-48.351563 52.167969-83.992188 52.214844zm0 0"/></g></svg>