<svg id="Capa_1" enable-background="new 0 0 512 512" height="512" viewBox="0 0 512 512" width="512" xmlns="http://www.w3.org/2000/svg"><g><g><path d="m443.256 504.5h-323.928c-26.342 0-47.697-21.355-47.697-47.697v-401.603c0-26.342 21.355-47.697 47.697-47.697h323.928c26.342 0 47.697 21.355 47.697 47.697v401.603c0 26.342-21.355 47.697-47.697 47.697z" fill="#f9f6f9"/><path d="m146.097 504.497h-26.766c-26.342 0-47.7-21.358-47.7-47.7v-401.597c0-26.342 21.358-47.7 47.7-47.7h26.766c-26.342 0-47.7 21.358-47.7 47.7v401.598c0 26.342 21.357 47.699 47.7 47.699z" fill="#dfeaef"/><circle cx="281.292" cy="305.17" fill="#dfeaef" r="149.384"/><circle cx="281.292" cy="305.17" fill="#4073c8" r="95.241"/><path d="m376.531 305.169c0 52.596-42.646 95.242-95.242 95.242-49.345 0-89.932-37.533-94.76-85.598 1.606.138 3.31.207 5.123.207 29.879 0 29.879-19.703 59.758-19.703 29.869 0 29.869 19.703 59.748 19.703s29.879-19.703 59.758-19.703c1.813 0 3.527.069 5.133.207.314 3.173.482 6.394.482 9.645z" fill="#61a2f9"/><path d="m194.637 504.5h-150.711l-22.879-231.714h196.469z" fill="#b7e445"/><path d="m87.149 504.498h-43.218l-22.884-231.712h56.349z" fill="#9bd069"/><circle cx="425.434" cy="67.056" fill="#dfeaef" r="28.173"/><circle cx="345.509" cy="68.099" fill="#dfeaef" r="28.173"/><path d="m108.707 272.786-45.863 66.83-41.797-66.83z" fill="#f1d333"/></g><g><path d="m490.95 154.44c4.143 0 7.5-3.358 7.5-7.5v-91.74c0-30.438-24.763-55.2-55.2-55.2h-323.93c-30.432 0-55.19 24.763-55.19 55.2v210.086h-43.083c-.009 0-.017.005-.026.005-2.107.008-4.114.901-5.529 2.462-1.422 1.569-2.114 3.666-1.906 5.773l17.49 177.09c.407 4.122 4.072 7.131 8.201 6.727 4.122-.407 7.133-4.079 6.727-8.201l-14.345-145.244 24.826 39.695c1.341 2.144 3.671 3.467 6.199 3.521.054.001.107.001.16.001 2.468 0 4.783-1.216 6.184-3.256l43.626-63.569h96.589l-21.399 216.71h-137.119l-1.781-18.018c-.408-4.122-4.082-7.137-8.202-6.726-4.122.407-7.133 4.079-6.726 8.201l2.451 24.78c.379 3.838 3.607 6.762 7.463 6.762h399.32c30.438 0 55.2-24.763 55.2-55.2v-279.859c0-4.142-3.357-7.5-7.5-7.5s-7.5 3.358-7.5 7.5v279.86c0 22.167-18.034 40.2-40.2 40.2h-240.333l5.236-53.026c22.454 11.852 47.501 18.081 73.135 18.081 86.507 0 156.885-70.378 156.885-156.885 0-86.506-70.378-156.885-156.885-156.885-35.929 0-71.044 12.458-98.875 35.08-25.857 21.017-44.472 49.93-52.879 81.926h-20.77c-.019 0-.037-.004-.057-.004h-29.577v-135.187h404.32v16.84c0 4.142 3.358 7.5 7.5 7.5zm-427.815 171.497-28.549-45.647h59.875zm140.002-60.647c14.827-29.013 44.993-47.863 78.152-47.863 42.477 0 77.997 30.342 86.035 70.49-14.873.759-23.103 6.169-30.416 10.991-7.008 4.622-13.061 8.613-25.75 8.613-12.69 0-18.742-3.992-25.75-8.613-7.882-5.198-16.814-11.089-33.998-11.089-13.424 0-21.805 3.594-28.591 7.642l2.166-21.933c.208-2.107-.484-4.204-1.906-5.773-1.421-1.569-3.44-2.464-5.558-2.464h-14.384zm165.893 39.879c0 48.381-39.361 87.742-87.742 87.742-24.982 0-48.575-10.561-65.222-29.075l4.878-49.397c1.642-1 3.203-2.018 4.721-3.018 7.007-4.616 13.059-8.603 25.744-8.603 12.683 0 18.733 3.99 25.739 8.611 7.883 5.199 16.817 11.092 34.009 11.092 17.189 0 26.125-5.892 34.008-11.09 6.644-4.381 12.439-8.19 23.835-8.575.02.769.03 1.54.03 2.313zm-177.156-110.165c25.166-20.455 56.92-31.72 89.415-31.72 78.235 0 141.885 63.649 141.885 141.885s-63.649 141.885-141.885 141.885c-25.259 0-49.888-6.677-71.529-19.34l4.42-44.758c18.523 16.01 42.228 24.955 67.11 24.955 56.652 0 102.742-46.09 102.742-102.742s-46.09-102.742-102.742-102.742c-41.365 0-78.749 25.055-94.678 62.863h-41.512c8.039-27.414 24.412-52.11 46.774-70.286zm-112.744-79.904v-59.9c0-22.167 18.029-40.2 40.19-40.2h323.93c22.166 0 40.2 18.034 40.2 40.2v59.9z"/><path d="m425.434 31.383c-19.67 0-35.673 16.003-35.673 35.673s16.003 35.673 35.673 35.673c19.671 0 35.674-16.003 35.674-35.673s-16.003-35.673-35.674-35.673zm0 56.346c-11.399 0-20.673-9.274-20.673-20.673s9.273-20.673 20.673-20.673 20.674 9.274 20.674 20.673-9.275 20.673-20.674 20.673z"/><path d="m345.509 32.426c-19.671 0-35.674 16.003-35.674 35.673s16.003 35.673 35.674 35.673c19.67 0 35.673-16.003 35.673-35.673s-16.003-35.673-35.673-35.673zm0 56.346c-11.399 0-20.674-9.274-20.674-20.673s9.274-20.673 20.674-20.673 20.673 9.274 20.673 20.673-9.274 20.673-20.673 20.673z"/></g></g></svg>